<svg width="20" height="20" viewBox="0 0 20 20" fill="none" xmlns="http://www.w3.org/2000/svg">
<path fill-rule="evenodd" clip-rule="evenodd" d="M10.3149 0C12.7449 0 13.0989 0.0129999 14.1229 0.0599999C15.1869 0.109 15.9139 0.278 16.5499 0.525C17.2174 0.775874 17.8221 1.16936 18.3219 1.678C18.8305 2.17777 19.224 2.7825 19.4749 3.45C19.7219 4.086 19.8909 4.813 19.9399 5.877C19.9879 6.901 19.9999 7.255 19.9999 9.685C19.9999 12.115 19.9879 12.469 19.9399 13.493C19.8909 14.557 19.7219 15.284 19.4749 15.92C19.224 16.5875 18.8305 17.1922 18.3219 17.692C17.8221 18.2006 17.2174 18.5941 16.5499 18.845C15.9139 19.092 15.1869 19.261 14.1229 19.31C13.0989 19.358 12.7449 19.37 10.3149 19.37C7.88488 19.37 7.53088 19.357 6.50688 19.31C5.44288 19.261 4.71588 19.092 4.07988 18.845C3.41238 18.5941 2.80766 18.2006 2.30788 17.692C1.79924 17.1922 1.40576 16.5875 1.15488 15.92C0.907883 15.284 0.738883 14.557 0.689883 13.493C0.641883 12.469 0.629883 12.115 0.629883 9.685C0.629883 7.255 0.641883 6.901 0.689883 5.877C0.738883 4.813 0.907883 4.086 1.15488 3.45C1.40576 2.7825 1.79924 2.17777 2.30788 1.678C2.88382 1.13482 3.58274 0.739207 4.34488 0.525C4.98088 0.278 5.70788 0.109 6.77188 0.0599999C7.79288 0.0129999 8.14688 0 10.3149 0ZM9.31288 3.705C8.0295 3.705 6.79868 4.21482 5.89119 5.12231C4.9837 6.0298 4.47388 7.26062 4.47388 8.544C4.47388 9.82738 4.9837 11.0582 5.89119 11.9657C6.79868 12.8732 8.0295 13.383 9.31288 13.383C10.5963 13.383 11.8271 12.8732 12.7346 11.9657C13.6421 11.0582 14.1519 9.82738 14.1519 8.544C14.1519 7.26062 13.6421 6.0298 12.7346 5.12231C11.8271 4.21482 10.5963 3.705 9.31288 3.705ZM16.8199 3.955C16.438 3.955 16.0717 4.10671 15.8016 4.37677C15.5316 4.64682 15.3799 5.01309 15.3799 5.395C15.3799 5.77691 15.5316 6.14318 15.8016 6.41323C16.0717 6.68329 16.438 6.835 16.8199 6.835C17.2018 6.835 17.5681 6.68329 17.8381 6.41323C18.1082 6.14318 18.2599 5.77691 18.2599 5.395C18.2599 5.01309 18.1082 4.64682 17.8381 4.37677C17.5681 4.10671 17.2018 3.955 16.8199 3.955Z" fill="#F8F8F8"/>
</svg>
