<svg width="20" height="27" viewBox="0 0 20 27" fill="none" xmlns="http://www.w3.org/2000/svg">
<rect width="15.4023" height="2.23387" rx="1.11693" transform="matrix(-1 0 0 1 17.7012 22.7461)" fill="#543A14"/>
<rect width="1.37931" height="26.1972" rx="0.689655" transform="matrix(-1 0 0 1 16.7815 0)" fill="#543A14"/>
<rect width="1.37931" height="26.1972" rx="0.689655" transform="matrix(-1 0 0 1 10.8047 0)" fill="#543A14"/>
<rect width="1.37931" height="26.1972" rx="0.689655" transform="matrix(-1 0 0 1 4.59766 0)" fill="#543A14"/>
<rect width="1.01539" height="15.4023" rx="0.507697" transform="matrix(0 -1 -1 0 17.7012 8.93555)" fill="#543A14"/>
<rect width="0.609236" height="8.96552" rx="0.304618" transform="matrix(0 -1 -1 0 11.4941 14.8262)" fill="#543A14"/>
<rect x="11.9541" y="1.2168" width="2.06897" height="20.3079" rx="1.03448" fill="#F0BB78"/>
<rect x="17.9312" y="4.4668" width="2.06897" height="15.6371" rx="1.03448" fill="#F0BB78"/>
<rect y="7.10742" width="2.06897" height="10.9663" rx="1.03448" fill="#F0BB78"/>
<rect x="5.97705" y="4.26367" width="2.06897" height="16.0432" rx="1.03448" fill="#F0BB78"/>
</svg>
