<svg width="32" height="35" viewBox="0 0 32 35" fill="none" xmlns="http://www.w3.org/2000/svg">
<rect width="20.023" height="2.90403" rx="1.45201" transform="matrix(-1 0 0 1 26.0117 29.5684)" fill="#F8F8F8"/>
<rect width="1.7931" height="34.0563" rx="0.896552" transform="matrix(-1 0 0 1 24.8164 0)" fill="#F8F8F8"/>
<rect width="1.7931" height="34.0563" rx="0.896552" transform="matrix(-1 0 0 1 17.0464 0)" fill="#F8F8F8"/>
<rect width="1.7931" height="34.0563" rx="0.896552" transform="matrix(-1 0 0 1 8.97705 0)" fill="#F8F8F8"/>
<rect width="1.32001" height="20.023" rx="0.660006" transform="matrix(0 -1 -1 0 26.0117 11.6152)" fill="#F8F8F8"/>
<rect width="0.792008" height="11.6552" rx="0.396004" transform="matrix(0 -1 -1 0 17.9429 19.2734)" fill="#F8F8F8"/>
<rect x="18.54" y="1.58398" width="2.68966" height="26.4002" rx="1.34483" fill="#F8F8F8"/>
<rect x="26.3105" y="5.80859" width="2.68966" height="20.3282" rx="1.34483" fill="#F8F8F8"/>
<rect x="3" y="9.24219" width="2.68966" height="14.2561" rx="1.34483" fill="#F8F8F8"/>
<rect x="10.7705" y="5.54492" width="2.68966" height="20.8562" rx="1.34483" fill="#F8F8F8"/>
</svg>
