<svg width="20" height="17" viewBox="0 0 20 17" fill="none" xmlns="http://www.w3.org/2000/svg">
<path d="M6.29 16.2514C13.837 16.2514 17.965 9.99845 17.965 4.57645C17.965 4.39845 17.965 4.22144 17.953 4.04644C18.7562 3.46497 19.4493 2.74506 20 1.92045C19.2511 2.25245 18.4566 2.47021 17.643 2.56645C18.4996 2.0535 19.1408 1.24679 19.447 0.296445C18.6417 0.774332 17.7607 1.11117 16.842 1.29244C16.2234 0.63421 15.405 0.198279 14.5136 0.0521499C13.6222 -0.0939796 12.7075 0.0578443 11.9111 0.484114C11.1147 0.910383 10.4811 1.58732 10.1083 2.41011C9.7355 3.23289 9.64437 4.15563 9.849 5.03544C8.21759 4.95369 6.6216 4.52977 5.16465 3.79121C3.70769 3.05266 2.42233 2.01597 1.392 0.748445C0.867318 1.65165 0.706589 2.72087 0.942536 3.73841C1.17848 4.75595 1.79337 5.64532 2.662 6.22545C2.00901 6.20563 1.37037 6.02899 0.8 5.71044V5.76244C0.800389 6.70974 1.1284 7.62775 1.7284 8.3608C2.3284 9.09385 3.16347 9.59683 4.092 9.78445C3.48781 9.94916 2.85389 9.97311 2.239 9.85445C2.50116 10.6699 3.01168 11.383 3.69913 11.8941C4.38658 12.4051 5.21657 12.6884 6.073 12.7044C5.22235 13.3735 4.24812 13.8683 3.20605 14.1606C2.16398 14.4528 1.07452 14.5367 0 14.4074C1.8766 15.6118 4.06019 16.2505 6.29 16.2474" fill="#F8F8F8"/>
</svg>
