<svg width="41" height="40" viewBox="0 0 41 40" fill="none" xmlns="http://www.w3.org/2000/svg">
<rect width="40.02" height="40" rx="20" fill="#543A14" fill-opacity="0.1"/>
<path d="M8.34326 25.834V24.3027C8.34326 23.606 8.69974 23.0388 9.41271 22.6013C10.1257 22.1638 11.0655 21.9451 12.2322 21.9451C12.4428 21.9451 12.6453 21.9491 12.8398 21.9572C13.0342 21.9654 13.2206 21.9856 13.3988 22.018C13.172 22.3583 13.0018 22.7148 12.8884 23.0875C12.775 23.4601 12.7183 23.849 12.7183 24.2541V25.834H8.34326ZM14.1766 25.834V24.2541C14.1766 23.7356 14.3184 23.2616 14.6019 22.8322C14.8855 22.4029 15.2865 22.0261 15.8051 21.702C16.3236 21.378 16.9434 21.1349 17.6644 20.9729C18.3855 20.8108 19.1673 20.7298 20.0099 20.7298C20.8687 20.7298 21.6587 20.8108 22.3797 20.9729C23.1008 21.1349 23.7206 21.378 24.2391 21.702C24.7576 22.0261 25.1546 22.4029 25.4301 22.8322C25.7055 23.2616 25.8433 23.7356 25.8433 24.2541V25.834H14.1766ZM27.3016 25.834V24.2541C27.3016 23.8328 27.2489 23.4358 27.1436 23.0632C27.0383 22.6905 26.8803 22.3421 26.6697 22.018C26.8479 21.9856 27.0302 21.9654 27.2165 21.9572C27.4029 21.9491 27.5933 21.9451 27.7877 21.9451C28.9544 21.9451 29.8942 22.1598 30.6072 22.5892C31.3201 23.0186 31.6766 23.5898 31.6766 24.3027V25.834H27.3016ZM16.2426 23.8895H23.8016C23.6396 23.5655 23.1899 23.2819 22.4526 23.0388C21.7154 22.7958 20.9011 22.6743 20.0099 22.6743C19.1187 22.6743 18.3045 22.7958 17.5672 23.0388C16.83 23.2819 16.3884 23.5655 16.2426 23.8895ZM12.2322 20.9729C11.6974 20.9729 11.2397 20.7825 10.8589 20.4017C10.4781 20.0209 10.2877 19.5632 10.2877 19.0284C10.2877 18.4775 10.4781 18.0157 10.8589 17.643C11.2397 17.2703 11.6974 17.084 12.2322 17.084C12.7831 17.084 13.2449 17.2703 13.6176 17.643C13.9903 18.0157 14.1766 18.4775 14.1766 19.0284C14.1766 19.5632 13.9903 20.0209 13.6176 20.4017C13.2449 20.7825 12.7831 20.9729 12.2322 20.9729ZM27.7877 20.9729C27.253 20.9729 26.7952 20.7825 26.4144 20.4017C26.0337 20.0209 25.8433 19.5632 25.8433 19.0284C25.8433 18.4775 26.0337 18.0157 26.4144 17.643C26.7952 17.2703 27.253 17.084 27.7877 17.084C28.3386 17.084 28.8004 17.2703 29.1731 17.643C29.5458 18.0157 29.7322 18.4775 29.7322 19.0284C29.7322 19.5632 29.5458 20.0209 29.1731 20.4017C28.8004 20.7825 28.3386 20.9729 27.7877 20.9729ZM20.0099 20.0007C19.1997 20.0007 18.5111 19.7171 17.944 19.15C17.3768 18.5828 17.0933 17.8942 17.0933 17.084C17.0933 16.2576 17.3768 15.5649 17.944 15.0059C18.5111 14.4468 19.1997 14.1673 20.0099 14.1673C20.8363 14.1673 21.529 14.4468 22.0881 15.0059C22.6471 15.5649 22.9266 16.2576 22.9266 17.084C22.9266 17.8942 22.6471 18.5828 22.0881 19.15C21.529 19.7171 20.8363 20.0007 20.0099 20.0007ZM20.0099 18.0562C20.2854 18.0562 20.5163 17.963 20.7026 17.7767C20.889 17.5904 20.9822 17.3594 20.9822 17.084C20.9822 16.8085 20.889 16.5776 20.7026 16.3913C20.5163 16.2049 20.2854 16.1118 20.0099 16.1118C19.7345 16.1118 19.5036 16.2049 19.3172 16.3913C19.1309 16.5776 19.0377 16.8085 19.0377 17.084C19.0377 17.3594 19.1309 17.5904 19.3172 17.7767C19.5036 17.963 19.7345 18.0562 20.0099 18.0562Z" fill="#543A14"/>
</svg>
