<svg width="41" height="40" viewBox="0 0 41 40" fill="none" xmlns="http://www.w3.org/2000/svg">
<rect width="40.02" height="40" rx="20" fill="#543A14" fill-opacity="0.1"/>
<path d="M18.0656 28.75C16.9962 28.75 16.0807 28.3692 15.3191 27.6076C14.5575 26.8461 14.1768 25.9306 14.1768 24.8611C14.1768 23.7917 14.5575 22.8762 15.3191 22.1146C16.0807 21.353 16.9962 20.9722 18.0656 20.9722C18.4383 20.9722 18.7827 21.0168 19.0986 21.1059C19.4146 21.195 19.7184 21.3287 20.0101 21.5069V11.25H25.8434V15.1389H21.9545V24.8611C21.9545 25.9306 21.5737 26.8461 20.8122 27.6076C20.0506 28.3692 19.1351 28.75 18.0656 28.75Z" fill="#543A14"/>
</svg>
