<svg width="41" height="40" viewBox="0 0 41 40" fill="none" xmlns="http://www.w3.org/2000/svg">
<rect width="40.02" height="40" rx="20" fill="#543A14" fill-opacity="0.1"/>
<path d="M20.0098 29.7227C18.6811 29.7227 17.4253 29.4674 16.2425 28.957C15.0596 28.4466 14.0266 27.7499 13.1435 26.8668C12.2604 25.9837 11.5636 24.9507 11.0532 23.7678C10.5428 22.5849 10.2876 21.3291 10.2876 20.0004C10.2876 18.6555 10.5428 17.3957 11.0532 16.2209C11.5636 15.0462 12.2604 14.0172 13.1435 13.1341C14.0266 12.251 15.0596 11.5543 16.2425 11.0438C17.4253 10.5334 18.6811 10.2782 20.0098 10.2782C21.3547 10.2782 22.6146 10.5334 23.7893 11.0438C24.9641 11.5543 25.993 12.251 26.8761 13.1341C27.7592 14.0172 28.456 15.0462 28.9664 16.2209C29.4768 17.3957 29.732 18.6555 29.732 20.0004C29.732 21.3291 29.4768 22.5849 28.9664 23.7678C28.456 24.9507 27.7592 25.9837 26.8761 26.8668C25.993 27.7499 24.9641 28.4466 23.7893 28.957C22.6146 29.4674 21.3547 29.7227 20.0098 29.7227ZM20.0098 27.7296C20.4311 27.1463 20.7957 26.5386 21.1036 25.9067C21.4114 25.2747 21.6626 24.6023 21.857 23.8893H18.1626C18.357 24.6023 18.6082 25.2747 18.9161 25.9067C19.2239 26.5386 19.5885 27.1463 20.0098 27.7296ZM17.482 27.3407C17.1904 26.806 16.9352 26.251 16.7164 25.6758C16.4977 25.1005 16.3154 24.5051 16.1695 23.8893H13.3015C13.7714 24.6995 14.3588 25.4044 15.0636 26.0039C15.7685 26.6034 16.5746 27.049 17.482 27.3407ZM22.5376 27.3407C23.445 27.049 24.2511 26.6034 24.956 26.0039C25.6609 25.4044 26.2482 24.6995 26.7182 23.8893H23.8501C23.7043 24.5051 23.522 25.1005 23.3032 25.6758C23.0845 26.251 22.8293 26.806 22.5376 27.3407ZM12.4751 21.9449H15.7807C15.732 21.6208 15.6956 21.3008 15.6713 20.9848C15.647 20.6688 15.6348 20.3407 15.6348 20.0004C15.6348 19.6602 15.647 19.332 15.6713 19.0161C15.6956 18.7001 15.732 18.3801 15.7807 18.056H12.4751C12.3941 18.3801 12.3333 18.7001 12.2928 19.0161C12.2523 19.332 12.232 19.6602 12.232 20.0004C12.232 20.3407 12.2523 20.6688 12.2928 20.9848C12.3333 21.3008 12.3941 21.6208 12.4751 21.9449ZM17.7251 21.9449H22.2945C22.3432 21.6208 22.3796 21.3008 22.4039 20.9848C22.4282 20.6688 22.4404 20.3407 22.4404 20.0004C22.4404 19.6602 22.4282 19.332 22.4039 19.0161C22.3796 18.7001 22.3432 18.3801 22.2945 18.056H17.7251C17.6765 18.3801 17.64 18.7001 17.6157 19.0161C17.5914 19.332 17.5793 19.6602 17.5793 20.0004C17.5793 20.3407 17.5914 20.6688 17.6157 20.9848C17.64 21.3008 17.6765 21.6208 17.7251 21.9449ZM24.239 21.9449H27.5445C27.6256 21.6208 27.6863 21.3008 27.7268 20.9848C27.7673 20.6688 27.7876 20.3407 27.7876 20.0004C27.7876 19.6602 27.7673 19.332 27.7268 19.0161C27.6863 18.7001 27.6256 18.3801 27.5445 18.056H24.239C24.2876 18.3801 24.3241 18.7001 24.3484 19.0161C24.3727 19.332 24.3848 19.6602 24.3848 20.0004C24.3848 20.3407 24.3727 20.6688 24.3484 20.9848C24.3241 21.3008 24.2876 21.6208 24.239 21.9449ZM23.8501 16.1115H26.7182C26.2482 15.3014 25.6609 14.5965 24.956 13.997C24.2511 13.3974 23.445 12.9518 22.5376 12.6602C22.8293 13.1949 23.0845 13.7499 23.3032 14.3251C23.522 14.9003 23.7043 15.4958 23.8501 16.1115ZM18.1626 16.1115H21.857C21.6626 15.3986 21.4114 14.7261 21.1036 14.0942C20.7957 13.4622 20.4311 12.8546 20.0098 12.2713C19.5885 12.8546 19.2239 13.4622 18.9161 14.0942C18.6082 14.7261 18.357 15.3986 18.1626 16.1115ZM13.3015 16.1115H16.1695C16.3154 15.4958 16.4977 14.9003 16.7164 14.3251C16.9352 13.7499 17.1904 13.1949 17.482 12.6602C16.5746 12.9518 15.7685 13.3974 15.0636 13.997C14.3588 14.5965 13.7714 15.3014 13.3015 16.1115Z" fill="#543A14"/>
</svg>
